# xmcd
# 
# Track frame offsets:
#     182
#     12105
#     25202
#     38590
#     51190
#     63252
#     74967
#     85857
#     99045
#     113905
#     126205
#     138767
#     149190
#     163347
#     176960
# 
# Disc length: 2532
# 
# Revision: 3
# Processed by: cddbd v1.5.2PL0 Copyright (c) Steve Scherf et al.
# Submitted via: fre:ac v1.0.31
# 
DISCID=d709e20f
DTITLE=Columbia Blues - Sonny Boy Williamson II Goin' In Your Direction
DYEAR=0
DGENRE=Blues
TTITLE0=Goin' In Your Direction
TTITLE1=From The Bottom
TTITLE2=No Nights By Myself
TTITLE3=Boppin' With Sonny
TTITLE4=Empty Bedroom
TTITLE5=Red Hot Kisses
TTITLE6=Gettin' Out Of Town
TTITLE7=Cat Hop
TTITLE8=She Brought Life Back To The Dead
TTITLE9=I'm Not Beggin' Nobody
TTITLE10=She's Crazy
TTITLE11=Sonny's Rhythm #2
TTITLE12=Make A Little Love With Me (w/Arthur "Bigboy" Crudup)
TTITLE13=Gonna Find My Baby (w/Arthur "Bigboy" Crudup)
TTITLE14=Catfish Blues (w/Bobo "Slim" Thomas)
EXTD=
EXTT0=
EXTT1=
EXTT2=
EXTT3=
EXTT4=
EXTT5=
EXTT6=
EXTT7=
EXTT8=
EXTT9=
EXTT10=
EXTT11=
EXTT12=
EXTT13=
EXTT14=
PLAYORDER=
